<svg id="Layer_1" data-name="Layer 1" xmlns="http://www.w3.org/2000/svg" viewBox="0 0 719.86 702.04"><defs><style>.cls-1{fill:#00539f;}.cls-2{fill:#fff;}</style></defs><path class="cls-1" d="M359.69,700.57c-18.34-53.86-48.39-103.16-91.85-150.7-37.1-40.57-77.65-72.78-110.23-98.66-20.26-16.09-37.75-30-50.22-42.45-53.9-53.9-80.23-92.12-93.92-136.32C1.24,233-2.53,195.45,2.27,161,6.65,129.54,18,101.22,36,76.8,71.33,28.87,129.52.25,191.66.25c36.16,0,70.45,9.92,99.16,28.69C322,49.32,345.87,80,359.93,117.73,374,80,397.88,49.31,429,28.94,457.74,10.17,492,.25,528.2.25c62.13,0,120.32,28.62,155.65,76.56,18,24.42,29.36,52.74,33.74,84.17,4.8,34.48,1,72-11.19,111.46-13.7,44.2-40,82.42-93.93,136.32-12.47,12.47-30,26.36-50.22,42.45C529.67,477.09,489.12,509.3,452,549.87c-43.46,47.54-73.51,96.84-91.85,150.7l-.24.7Z"/><path class="cls-2" d="M528.2.5c114.57,0,231,100.61,178,271.87-13.95,45-40.8,83.14-93.87,136.22S414.15,541.27,359.93,700.49c-54.22-159.22-199.29-238.83-252.36-291.9S27.65,317.41,13.7,272.37C-39.34,101.09,77.08.5,191.66.5c69.55,0,138.43,37.09,168.27,118C389.77,37.58,458.64.49,528.2.5m0-.5h0C492,0,457.64,9.94,428.89,28.73A169.48,169.48,0,0,0,388.64,65.6,191,191,0,0,0,359.93,117,191,191,0,0,0,331.22,65.6,169.48,169.48,0,0,0,291,28.74C262.21,9.94,227.87,0,191.66,0a200.8,200.8,0,0,0-86.44,19.68,186.5,186.5,0,0,0-69.42,57C17.77,101.11,6.41,129.47,2,160.94-2.78,195.45,1,233,13.23,272.51c13.7,44.25,40.05,82.5,94,136.43,12.47,12.48,30,26.37,50.23,42.47C190,477.28,230.57,509.48,267.65,550c43.45,47.52,73.48,96.78,91.81,150.61l.47,1.39.47-1.39c18.33-53.83,48.36-103.09,91.81-150.61,37.08-40.56,77.62-72.76,110.2-98.63,20.26-16.1,37.76-30,50.23-42.47,53.94-53.93,80.29-92.18,94-136.43,12.24-39.51,16-77,11.21-111.56-4.39-31.47-15.75-59.82-33.78-84.28a186.63,186.63,0,0,0-69.42-57A201,201,0,0,0,528.2,0Z"/></svg>